G04*
G04 #@! TF.GenerationSoftware,Altium Limited,Altium Designer,18.0.11 (651)*
G04*
G04 Layer_Color=65535*
%FSLAX25Y25*%
%MOIN*%
G70*
G01*
G75*
%ADD10C,0.00984*%
%ADD11C,0.00787*%
%ADD12C,0.01968*%
%ADD13C,0.01000*%
%ADD14C,0.00800*%
%ADD15C,0.00299*%
%ADD16C,0.00276*%
D10*
X120921Y-174000D02*
G03*
X120921Y-174000I-492J0D01*
G01*
X90886Y-147567D02*
G03*
X90886Y-147567I-492J0D01*
G01*
D11*
X88400Y-156000D02*
G03*
X90000Y-157900I1750J-150D01*
G01*
X97000Y-158000D02*
G03*
X99100Y-156000I50J2050D01*
G01*
X99100Y-154000D02*
G03*
X97000Y-152300I-1900J-200D01*
G01*
X90000Y-152200D02*
G03*
X88400Y-154000I100J-1700D01*
G01*
X123100Y-129400D02*
G03*
X121200Y-131000I-150J-1750D01*
G01*
X121100Y-138000D02*
G03*
X123100Y-140100I2050J-50D01*
G01*
X125100Y-140100D02*
G03*
X126800Y-138000I-200J1900D01*
G01*
X126900Y-131000D02*
G03*
X125100Y-129400I-1700J-100D01*
G01*
X122400Y-154900D02*
G03*
X124000Y-156800I1750J-150D01*
G01*
X131000Y-156900D02*
G03*
X133100Y-154900I50J2050D01*
G01*
X133100Y-152900D02*
G03*
X131000Y-151200I-1900J-200D01*
G01*
X124000Y-151100D02*
G03*
X122400Y-152900I100J-1700D01*
G01*
X133500Y-126600D02*
G03*
X135400Y-125000I150J1750D01*
G01*
X135500Y-118000D02*
G03*
X133500Y-115900I-2050J50D01*
G01*
X131500Y-115900D02*
G03*
X129800Y-118000I200J-1900D01*
G01*
X129700Y-125000D02*
G03*
X131500Y-126600I1700J100D01*
G01*
X15100Y-16900D02*
G03*
X13200Y-18500I-150J-1750D01*
G01*
X13100Y-25500D02*
G03*
X15100Y-27600I2050J-50D01*
G01*
X17100Y-27600D02*
G03*
X18800Y-25500I-200J1900D01*
G01*
X18900Y-18500D02*
G03*
X17100Y-16900I-1700J-100D01*
G01*
X124500Y-106000D02*
X144500D01*
Y-86000D01*
X124500Y-106000D02*
Y-86000D01*
X144500D01*
X3000Y-34500D02*
X33000D01*
X3000Y-44500D02*
Y-34500D01*
Y-44500D02*
X33000D01*
Y-34500D01*
X134012Y-179512D02*
Y-158488D01*
X122988Y-179512D02*
Y-158488D01*
X134012D01*
X122988Y-179512D02*
X134012D01*
X95200Y-152300D02*
X97000D01*
X99100Y-156000D02*
Y-154000D01*
X95400Y-158000D02*
X97000D01*
X90000Y-157900D02*
X92600D01*
X88400Y-156000D02*
Y-154000D01*
X90000Y-152200D02*
X92300D01*
X126800Y-138000D02*
Y-136200D01*
X123100Y-140100D02*
X125100D01*
X121100Y-138000D02*
Y-136400D01*
X121200Y-133600D02*
Y-131000D01*
X123100Y-129400D02*
X125100D01*
X126900Y-133300D02*
Y-131000D01*
X87047Y-117154D02*
Y-115874D01*
X88327D01*
X115394Y-117154D02*
Y-115874D01*
X114114D02*
X115394D01*
Y-144220D02*
Y-142941D01*
X114114Y-144220D02*
X115394D01*
X87047D02*
Y-142941D01*
Y-144220D02*
X88327D01*
X129200Y-151200D02*
X131000D01*
X133100Y-154900D02*
Y-152900D01*
X129400Y-156900D02*
X131000D01*
X124000Y-156800D02*
X126600D01*
X122400Y-154900D02*
Y-152900D01*
X124000Y-151100D02*
X126300D01*
X129800Y-119800D02*
Y-118000D01*
X131500Y-115900D02*
X133500D01*
X135500Y-119600D02*
Y-118000D01*
X135400Y-125000D02*
Y-122400D01*
X131500Y-126600D02*
X133500D01*
X129700Y-125000D02*
Y-122700D01*
X3000Y-85500D02*
X13000D01*
Y-125500D02*
Y-85500D01*
X3000Y-125500D02*
Y-85500D01*
Y-125500D02*
X13000D01*
X18800Y-25500D02*
Y-23700D01*
X15100Y-27600D02*
X17100D01*
X13100Y-25500D02*
Y-23900D01*
X13200Y-21100D02*
Y-18500D01*
X15100Y-16900D02*
X17100D01*
X18900Y-20800D02*
Y-18500D01*
X113000Y-80500D02*
Y-60500D01*
X143000Y-80500D02*
Y-60500D01*
X113000Y-80500D02*
X143000D01*
X113000Y-60500D02*
X143000D01*
X113000D02*
X132167D01*
X23000Y-5500D02*
X32000D01*
X24000D02*
X33000D01*
X23000Y-26500D02*
Y-5500D01*
Y-26500D02*
X24500Y-28000D01*
X33000Y-26500D02*
Y-5500D01*
X31500Y-28000D02*
X33000Y-26500D01*
X24500Y-28000D02*
X31500D01*
D12*
X36984Y-106000D02*
G03*
X36984Y-106000I-984J0D01*
G01*
D13*
X13500Y-66811D02*
Y-59311D01*
X5000Y-52811D02*
X11000D01*
X5000Y-79189D02*
X11000D01*
X2500Y-76500D02*
Y-55500D01*
X-3500Y-73000D02*
X2488D01*
X-3500D02*
Y-67000D01*
X2488D01*
X137000Y-140799D02*
X143000D01*
X137000Y-129599D02*
X143000D01*
X137000Y-140799D02*
Y-136299D01*
X143000Y-140799D02*
Y-136299D01*
X137000Y-133799D02*
Y-129599D01*
X143000Y-133799D02*
Y-129599D01*
X103500Y-91000D02*
Y-85000D01*
X114700Y-91000D02*
Y-85000D01*
X103500D02*
X108000D01*
X103500Y-91000D02*
X108000D01*
X110500Y-85000D02*
X114700D01*
X110500Y-91000D02*
X114700D01*
X114500Y-163000D02*
Y-157000D01*
X103300Y-163000D02*
Y-157000D01*
X110000Y-163000D02*
X114500D01*
X110000Y-157000D02*
X114500D01*
X103300Y-163000D02*
X107500D01*
X103300Y-157000D02*
X107500D01*
X6600Y-209300D02*
X55500D01*
X6600D02*
Y-137000D01*
X55500Y-209300D02*
X55600Y-209200D01*
X55600Y-137500D02*
X55600Y-209200D01*
X129500Y-129701D02*
X135500D01*
X129500Y-140901D02*
X135500D01*
Y-134201D02*
Y-129701D01*
X129500Y-134201D02*
Y-129701D01*
X135500Y-140901D02*
Y-136701D01*
X129500Y-140901D02*
Y-136701D01*
X137000Y-152000D02*
X143000D01*
X137000Y-163200D02*
X143000D01*
Y-156500D02*
Y-152000D01*
X137000Y-156500D02*
Y-152000D01*
X143000Y-163200D02*
Y-159000D01*
X137000Y-163200D02*
Y-159000D01*
X121000Y-126000D02*
X127000D01*
X121000Y-114800D02*
X127000D01*
X121000Y-126000D02*
Y-121500D01*
X127000Y-126000D02*
Y-121500D01*
X121000Y-119000D02*
Y-114800D01*
X127000Y-119000D02*
Y-114800D01*
X13000Y-15000D02*
X19000D01*
X13000Y-3800D02*
X19000D01*
X13000Y-15000D02*
Y-10500D01*
X19000Y-15000D02*
Y-10500D01*
X13000Y-8000D02*
Y-3800D01*
X19000Y-8000D02*
Y-3800D01*
X99099Y-64000D02*
X103299D01*
X99099Y-70000D02*
X103299D01*
X105799Y-64000D02*
X110299D01*
X105799Y-70000D02*
X110299D01*
X99099D02*
Y-64000D01*
X110299Y-70000D02*
Y-64000D01*
X106201Y-78000D02*
X110401D01*
X106201Y-72000D02*
X110401D01*
X99201Y-78000D02*
X103701D01*
X99201Y-72000D02*
X103701D01*
X110401Y-78000D02*
Y-72000D01*
X99201Y-78000D02*
Y-72000D01*
X54000Y-110000D02*
Y-88000D01*
X32000D02*
X54000D01*
X32000Y-110000D02*
Y-88000D01*
Y-110000D02*
X54000D01*
X44300Y-34500D02*
X56300D01*
X44300Y-9600D02*
Y-8500D01*
X56300D01*
Y-34500D02*
Y-8500D01*
X44300Y-34500D02*
Y-33400D01*
D14*
X117000Y-100800D02*
X119774Y-98026D01*
X116949Y-95200D02*
X119774Y-98026D01*
X116875Y-95200D02*
X116949D01*
X111700Y-100800D02*
X117000D01*
X111700Y-95200D02*
X116949D01*
X102900Y-100800D02*
X108300D01*
X102900D02*
Y-100600D01*
Y-95200D01*
X103000D01*
X108300D01*
D15*
X147500Y-89000D02*
X146834D01*
X147167D01*
Y-90999D01*
X147500Y-90666D01*
X148167Y-99000D02*
X149500D01*
X148167Y-100333D01*
Y-100666D01*
X148500Y-100999D01*
X149167D01*
X149500Y-100666D01*
X122500Y-99000D02*
Y-100999D01*
X123500Y-100000D01*
X122167D01*
X123500Y-90666D02*
X123167Y-90999D01*
X122500D01*
X122167Y-90666D01*
Y-90333D01*
X122500Y-90000D01*
X122834D01*
X122500D01*
X122167Y-89666D01*
Y-89333D01*
X122500Y-89000D01*
X123167D01*
X123500Y-89333D01*
X13834Y-89667D02*
X13501Y-90000D01*
Y-90667D01*
X13834Y-91000D01*
X15167D01*
X15500Y-90667D01*
Y-90000D01*
X15167Y-89667D01*
X14500D01*
Y-90334D01*
X15500Y-89001D02*
X13501D01*
X15500Y-87668D01*
X13501D01*
Y-87001D02*
X15500D01*
Y-86002D01*
X15167Y-85668D01*
X13834D01*
X13501Y-86002D01*
Y-87001D01*
X13834Y-101667D02*
X13501Y-102000D01*
Y-102667D01*
X13834Y-103000D01*
X14167D01*
X14500Y-102667D01*
Y-102000D01*
X14833Y-101667D01*
X15167D01*
X15500Y-102000D01*
Y-102667D01*
X15167Y-103000D01*
X13501Y-101001D02*
X15500D01*
X14833Y-100334D01*
X15500Y-99668D01*
X13501D01*
X13834Y-97668D02*
X13501Y-98002D01*
Y-98668D01*
X13834Y-99001D01*
X15167D01*
X15500Y-98668D01*
Y-98002D01*
X15167Y-97668D01*
X13501Y-97002D02*
X15500D01*
Y-95669D01*
X13501Y-95003D02*
X15500D01*
X14833D01*
X13501Y-93670D01*
X14500Y-94669D01*
X15500Y-93670D01*
X13834Y-111667D02*
X13501Y-112000D01*
Y-112667D01*
X13834Y-113000D01*
X14167D01*
X14500Y-112667D01*
Y-112000D01*
X14833Y-111667D01*
X15167D01*
X15500Y-112000D01*
Y-112667D01*
X15167Y-113000D01*
X13501Y-111001D02*
X15500D01*
X14833Y-110334D01*
X15500Y-109668D01*
X13501D01*
Y-109001D02*
Y-108335D01*
Y-108668D01*
X15500D01*
Y-109001D01*
Y-108335D01*
X13501Y-106335D02*
Y-107002D01*
X13834Y-107335D01*
X15167D01*
X15500Y-107002D01*
Y-106335D01*
X15167Y-106002D01*
X13834D01*
X13501Y-106335D01*
X14500Y-125000D02*
Y-123667D01*
X13834Y-124334D02*
X15167D01*
X13834Y-123001D02*
X13501Y-122667D01*
Y-122001D01*
X13834Y-121668D01*
X14167D01*
X14500Y-122001D01*
Y-122334D01*
Y-122001D01*
X14833Y-121668D01*
X15167D01*
X15500Y-122001D01*
Y-122667D01*
X15167Y-123001D01*
X15500Y-121001D02*
X15167D01*
Y-120668D01*
X15500D01*
Y-121001D01*
X13834Y-119335D02*
X13501Y-119002D01*
Y-118335D01*
X13834Y-118002D01*
X14167D01*
X14500Y-118335D01*
Y-118669D01*
Y-118335D01*
X14833Y-118002D01*
X15167D01*
X15500Y-118335D01*
Y-119002D01*
X15167Y-119335D01*
X13501Y-117336D02*
X14833D01*
X15500Y-116669D01*
X14833Y-116003D01*
X13501D01*
X28500Y-31000D02*
Y-29667D01*
X27834Y-30334D02*
X29167D01*
X93221Y-148714D02*
Y-149714D01*
X93554Y-150047D01*
X94553D01*
Y-148714D01*
X96553Y-150047D02*
X95220D01*
X96553Y-148714D01*
Y-148381D01*
X96219Y-148048D01*
X95553D01*
X95220Y-148381D01*
X102500Y-90500D02*
X100501D01*
Y-89500D01*
X100834Y-89167D01*
X101500D01*
X101834Y-89500D01*
Y-90500D01*
Y-89834D02*
X102500Y-89167D01*
X100834Y-88501D02*
X100501Y-88167D01*
Y-87501D01*
X100834Y-87168D01*
X101167D01*
X101500Y-87501D01*
Y-87834D01*
Y-87501D01*
X101834Y-87168D01*
X102167D01*
X102500Y-87501D01*
Y-88167D01*
X102167Y-88501D01*
X102500Y-86501D02*
Y-85835D01*
Y-86168D01*
X100501D01*
X100834Y-86501D01*
X136800Y-149200D02*
Y-147201D01*
X137800D01*
X138133Y-147534D01*
Y-148200D01*
X137800Y-148533D01*
X136800D01*
X137467D02*
X138133Y-149200D01*
X140132D02*
X138799D01*
X140132Y-147867D01*
Y-147534D01*
X139799Y-147201D01*
X139133D01*
X138799Y-147534D01*
X142132Y-147201D02*
X141465Y-147534D01*
X140799Y-148200D01*
Y-148867D01*
X141132Y-149200D01*
X141798D01*
X142132Y-148867D01*
Y-148533D01*
X141798Y-148200D01*
X140799D01*
X137000Y-144000D02*
Y-142001D01*
X138000D01*
X138333Y-142334D01*
Y-143000D01*
X138000Y-143333D01*
X137000D01*
X137666D02*
X138333Y-144000D01*
X140332D02*
X138999D01*
X140332Y-142667D01*
Y-142334D01*
X139999Y-142001D01*
X139333D01*
X138999Y-142334D01*
X142332Y-142001D02*
X140999D01*
Y-143000D01*
X141665Y-142667D01*
X141998D01*
X142332Y-143000D01*
Y-143667D01*
X141998Y-144000D01*
X141332D01*
X140999Y-143667D01*
X102201Y-162500D02*
X100201D01*
Y-161500D01*
X100535Y-161167D01*
X101201D01*
X101534Y-161500D01*
Y-162500D01*
Y-161834D02*
X102201Y-161167D01*
Y-159168D02*
Y-160501D01*
X100868Y-159168D01*
X100535D01*
X100201Y-159501D01*
Y-160167D01*
X100535Y-160501D01*
X102201Y-157502D02*
X100201D01*
X101201Y-158501D01*
Y-157168D01*
X120800Y-112000D02*
Y-110001D01*
X121800D01*
X122133Y-110334D01*
Y-111000D01*
X121800Y-111334D01*
X120800D01*
X121467D02*
X122133Y-112000D01*
X122799D02*
X123466D01*
X123133D01*
Y-110001D01*
X122799Y-110334D01*
X124466D02*
X124799Y-110001D01*
X125465D01*
X125798Y-110334D01*
Y-110667D01*
X125465Y-111000D01*
X125132D01*
X125465D01*
X125798Y-111334D01*
Y-111667D01*
X125465Y-112000D01*
X124799D01*
X124466Y-111667D01*
X130000Y-144201D02*
Y-142201D01*
X131000D01*
X131333Y-142535D01*
Y-143201D01*
X131000Y-143534D01*
X130000D01*
X130666D02*
X131333Y-144201D01*
X131999D02*
X132666D01*
X132333D01*
Y-142201D01*
X131999Y-142535D01*
X134998Y-144201D02*
X133666D01*
X134998Y-142868D01*
Y-142535D01*
X134665Y-142201D01*
X133999D01*
X133666Y-142535D01*
X120000Y-168500D02*
X118001D01*
X118667Y-167833D01*
X118001Y-167167D01*
X120000D01*
X118001Y-166501D02*
X120000D01*
X119334D01*
X118001Y-165168D01*
X119000Y-166167D01*
X120000Y-165168D01*
Y-164501D02*
Y-163835D01*
Y-164168D01*
X118001D01*
X118334Y-164501D01*
X103000Y-92001D02*
Y-94000D01*
X104333D01*
X104999Y-92001D02*
Y-94000D01*
X105999D01*
X106332Y-93667D01*
Y-92334D01*
X105999Y-92001D01*
X104999D01*
X106999Y-94333D02*
X108332D01*
X108998Y-92001D02*
Y-94000D01*
X110331D01*
X112330Y-92001D02*
X110997D01*
Y-94000D01*
X112330D01*
X110997Y-93000D02*
X111664D01*
X112997Y-92001D02*
Y-94000D01*
X113996D01*
X114330Y-93667D01*
Y-92334D01*
X113996Y-92001D01*
X112997D01*
X118834Y-92167D02*
X118501Y-92500D01*
Y-93167D01*
X118834Y-93500D01*
X120167D01*
X120500Y-93167D01*
Y-92500D01*
X120167Y-92167D01*
X118501Y-91501D02*
X120500D01*
Y-90168D01*
X118501Y-89501D02*
X120500D01*
X119834D01*
X118501Y-88168D01*
X119500Y-89168D01*
X120500Y-88168D01*
X85834Y-156267D02*
X85501Y-156600D01*
Y-157267D01*
X85834Y-157600D01*
X87167D01*
X87500Y-157267D01*
Y-156600D01*
X87167Y-156267D01*
X87500Y-155601D02*
Y-154934D01*
Y-155267D01*
X85501D01*
X85834Y-155601D01*
X85501Y-153935D02*
Y-152602D01*
X85834D01*
X87167Y-153935D01*
X87500D01*
X123633Y-146734D02*
X123300Y-146401D01*
X122633D01*
X122300Y-146734D01*
Y-148067D01*
X122633Y-148400D01*
X123300D01*
X123633Y-148067D01*
X124299Y-148400D02*
X124966D01*
X124633D01*
Y-146401D01*
X124299Y-146734D01*
X127298Y-146401D02*
X126632Y-146734D01*
X125965Y-147400D01*
Y-148067D01*
X126299Y-148400D01*
X126965D01*
X127298Y-148067D01*
Y-147733D01*
X126965Y-147400D01*
X125965D01*
X130897Y-111555D02*
X130564Y-111222D01*
X129898D01*
X129565Y-111555D01*
Y-112888D01*
X129898Y-113221D01*
X130564D01*
X130897Y-112888D01*
X131564Y-113221D02*
X132230D01*
X131897D01*
Y-111222D01*
X131564Y-111555D01*
X134230Y-113221D02*
Y-111222D01*
X133230Y-112222D01*
X134563D01*
X122833Y-141334D02*
X122500Y-141001D01*
X121833D01*
X121500Y-141334D01*
Y-142667D01*
X121833Y-143000D01*
X122500D01*
X122833Y-142667D01*
X123499Y-143000D02*
X124166D01*
X123833D01*
Y-141001D01*
X123499Y-141334D01*
X125165D02*
X125499Y-141001D01*
X126165D01*
X126498Y-141334D01*
Y-141667D01*
X126165Y-142000D01*
X125832D01*
X126165D01*
X126498Y-142333D01*
Y-142667D01*
X126165Y-143000D01*
X125499D01*
X125165Y-142667D01*
X2834Y-138667D02*
X2501Y-139000D01*
Y-139667D01*
X2834Y-140000D01*
X3167D01*
X3500Y-139667D01*
Y-139000D01*
X3834Y-138667D01*
X4167D01*
X4500Y-139000D01*
Y-139667D01*
X4167Y-140000D01*
X2501Y-138001D02*
Y-136668D01*
Y-137334D01*
X4500D01*
X4833Y-136001D02*
Y-134668D01*
X2501Y-134002D02*
X4500D01*
Y-132669D01*
X2501Y-132003D02*
Y-131336D01*
Y-131669D01*
X4500D01*
Y-132003D01*
Y-131336D01*
Y-130336D02*
X2501D01*
X4500Y-129004D01*
X2501D01*
Y-128337D02*
X4500D01*
X3834D01*
X2501Y-127004D01*
X3500Y-128004D01*
X4500Y-127004D01*
X11500Y-15500D02*
X9501D01*
Y-14500D01*
X9834Y-14167D01*
X10500D01*
X10834Y-14500D01*
Y-15500D01*
Y-14833D02*
X11500Y-14167D01*
X11167Y-13501D02*
X11500Y-13167D01*
Y-12501D01*
X11167Y-12168D01*
X9834D01*
X9501Y-12501D01*
Y-13167D01*
X9834Y-13501D01*
X10167D01*
X10500Y-13167D01*
Y-12168D01*
X11833Y-11501D02*
Y-10168D01*
X9501Y-8169D02*
X9834Y-8835D01*
X10500Y-9502D01*
X11167D01*
X11500Y-9169D01*
Y-8502D01*
X11167Y-8169D01*
X10834D01*
X10500Y-8502D01*
Y-9502D01*
X9834Y-7503D02*
X9501Y-7169D01*
Y-6503D01*
X9834Y-6170D01*
X10167D01*
X10500Y-6503D01*
X10834Y-6170D01*
X11167D01*
X11500Y-6503D01*
Y-7169D01*
X11167Y-7503D01*
X10834D01*
X10500Y-7169D01*
X10167Y-7503D01*
X9834D01*
X10500Y-7169D02*
Y-6503D01*
X9834Y-5503D02*
X9501Y-5170D01*
Y-4504D01*
X9834Y-4170D01*
X11167D01*
X11500Y-4504D01*
Y-5170D01*
X11167Y-5503D01*
X9834D01*
X97500Y-81500D02*
Y-79501D01*
X98500D01*
X98833Y-79834D01*
Y-80500D01*
X98500Y-80834D01*
X97500D01*
X98166D02*
X98833Y-81500D01*
X99499Y-79834D02*
X99833Y-79501D01*
X100499D01*
X100832Y-79834D01*
Y-80167D01*
X100499Y-80500D01*
X100832Y-80834D01*
Y-81167D01*
X100499Y-81500D01*
X99833D01*
X99499Y-81167D01*
Y-80834D01*
X99833Y-80500D01*
X99499Y-80167D01*
Y-79834D01*
X99833Y-80500D02*
X100499D01*
X101499Y-81833D02*
X102832D01*
X103498Y-81500D02*
X104165D01*
X103831D01*
Y-79501D01*
X103498Y-79834D01*
X105164D02*
X105497Y-79501D01*
X106164D01*
X106497Y-79834D01*
Y-81167D01*
X106164Y-81500D01*
X105497D01*
X105164Y-81167D01*
Y-79834D01*
X107164D02*
X107497Y-79501D01*
X108163D01*
X108496Y-79834D01*
Y-81167D01*
X108163Y-81500D01*
X107497D01*
X107164Y-81167D01*
Y-79834D01*
X109163Y-79501D02*
Y-81500D01*
Y-80834D01*
X110496Y-79501D01*
X109496Y-80500D01*
X110496Y-81500D01*
X99000Y-62500D02*
Y-60501D01*
X100000D01*
X100333Y-60834D01*
Y-61500D01*
X100000Y-61834D01*
X99000D01*
X99666D02*
X100333Y-62500D01*
X100999Y-60501D02*
X102332D01*
Y-60834D01*
X100999Y-62167D01*
Y-62500D01*
X102999Y-62833D02*
X104332D01*
X104998Y-62500D02*
X105665D01*
X105331D01*
Y-60501D01*
X104998Y-60834D01*
X106664D02*
X106997Y-60501D01*
X107664D01*
X107997Y-60834D01*
Y-62167D01*
X107664Y-62500D01*
X106997D01*
X106664Y-62167D01*
Y-60834D01*
X108663D02*
X108997Y-60501D01*
X109663D01*
X109996Y-60834D01*
Y-62167D01*
X109663Y-62500D01*
X108997D01*
X108663Y-62167D01*
Y-60834D01*
X110663Y-60501D02*
Y-62500D01*
Y-61834D01*
X111996Y-60501D01*
X110996Y-61500D01*
X111996Y-62500D01*
X144000Y-61000D02*
X145999D01*
Y-62000D01*
X145666Y-62333D01*
X145000D01*
X144667Y-62000D01*
Y-61000D01*
X145999Y-64332D02*
Y-62999D01*
X145000D01*
X145333Y-63666D01*
Y-63999D01*
X145000Y-64332D01*
X144333D01*
X144000Y-63999D01*
Y-63333D01*
X144333Y-62999D01*
X2001Y-176000D02*
X3667D01*
X4000Y-175667D01*
Y-175000D01*
X3667Y-174667D01*
X2001D01*
Y-172668D02*
Y-174001D01*
X3000D01*
X2667Y-173334D01*
Y-173001D01*
X3000Y-172668D01*
X3667D01*
X4000Y-173001D01*
Y-173667D01*
X3667Y-174001D01*
X67999Y-31000D02*
X66333D01*
X66000Y-31333D01*
Y-32000D01*
X66333Y-32333D01*
X67999D01*
X66000Y-33999D02*
X67999D01*
X67000Y-32999D01*
Y-34332D01*
X21001Y-117000D02*
X22667D01*
X23000Y-116667D01*
Y-116000D01*
X22667Y-115667D01*
X21001D01*
X23000Y-115001D02*
Y-114334D01*
Y-114667D01*
X21001D01*
X21334Y-115001D01*
X26000Y-2501D02*
X27333D01*
X26666D01*
Y-4500D01*
X29332Y-2834D02*
X28999Y-2501D01*
X28333D01*
X27999Y-2834D01*
Y-4167D01*
X28333Y-4500D01*
X28999D01*
X29332Y-4167D01*
X29999Y-4500D02*
X30665D01*
X30332D01*
Y-2501D01*
X29999Y-2834D01*
X31665Y-4833D02*
X32998D01*
X33664Y-4500D02*
X34331D01*
X33997D01*
Y-2501D01*
X33664Y-2834D01*
X35330D02*
X35664Y-2501D01*
X36330D01*
X36663Y-2834D01*
Y-4167D01*
X36330Y-4500D01*
X35664D01*
X35330Y-4167D01*
Y-2834D01*
X38663Y-2501D02*
X37996Y-2834D01*
X37330Y-3500D01*
Y-4167D01*
X37663Y-4500D01*
X38329D01*
X38663Y-4167D01*
Y-3834D01*
X38329Y-3500D01*
X37330D01*
X9834Y-26667D02*
X9501Y-27000D01*
Y-27667D01*
X9834Y-28000D01*
X11167D01*
X11500Y-27667D01*
Y-27000D01*
X11167Y-26667D01*
X11500Y-26001D02*
Y-25334D01*
Y-25667D01*
X9501D01*
X9834Y-26001D01*
X11833Y-24335D02*
Y-23002D01*
X11500Y-22335D02*
Y-21669D01*
Y-22002D01*
X9501D01*
X9834Y-22335D01*
Y-20669D02*
X9501Y-20336D01*
Y-19669D01*
X9834Y-19336D01*
X11167D01*
X11500Y-19669D01*
Y-20336D01*
X11167Y-20669D01*
X9834D01*
X11500Y-17670D02*
X9501D01*
X10500Y-18670D01*
Y-17337D01*
D16*
X3500Y-47500D02*
Y-45532D01*
X4484D01*
X4812Y-45860D01*
Y-46516D01*
X4484Y-46844D01*
X3500D01*
X5796Y-47500D02*
X6452D01*
X6780Y-47172D01*
Y-46516D01*
X6452Y-46188D01*
X5796D01*
X5468Y-46516D01*
Y-47172D01*
X5796Y-47500D01*
X7436Y-46188D02*
Y-47172D01*
X7764Y-47500D01*
X8092Y-47172D01*
X8420Y-47500D01*
X8748Y-47172D01*
Y-46188D01*
X10387Y-47500D02*
X9732D01*
X9404Y-47172D01*
Y-46516D01*
X9732Y-46188D01*
X10387D01*
X10716Y-46516D01*
Y-46844D01*
X9404D01*
X11371Y-46188D02*
Y-47500D01*
Y-46844D01*
X11699Y-46516D01*
X12027Y-46188D01*
X12355D01*
X2900Y-29832D02*
X4212D01*
Y-30160D01*
X2900Y-31472D01*
Y-31800D01*
X4868D02*
Y-31472D01*
X5196D01*
Y-31800D01*
X4868D01*
X7492D02*
Y-29832D01*
X6508Y-30816D01*
X7820D01*
X8476Y-29832D02*
Y-31144D01*
X9132Y-31800D01*
X9787Y-31144D01*
Y-29832D01*
M02*
