G04*
G04 #@! TF.GenerationSoftware,Altium Limited,Altium Designer,18.0.11 (651)*
G04*
G04 Layer_Color=32768*
%FSLAX25Y25*%
%MOIN*%
G70*
G01*
G75*
%ADD79C,0.00394*%
%ADD80C,0.00197*%
D79*
X14532Y-61815D02*
X18469D01*
X16500Y-63784D02*
Y-59847D01*
X20240Y-71815D02*
Y-51915D01*
X12760Y-71815D02*
Y-51915D01*
Y-71815D02*
X20240D01*
X12760Y-51915D02*
X20240D01*
X112585Y-165240D02*
Y-157760D01*
X92685Y-165240D02*
Y-157760D01*
X112585D01*
X92685Y-165240D02*
X112585D01*
X100716Y-161500D02*
X104654D01*
X102685Y-163469D02*
Y-159531D01*
X122260Y-127100D02*
X129740D01*
X122260Y-147000D02*
X129740D01*
X122260D02*
Y-127100D01*
X129740Y-147000D02*
Y-127100D01*
X126000Y-138969D02*
Y-135031D01*
X124031Y-137000D02*
X127969D01*
X84882Y-146386D02*
X117559D01*
X84882Y-113709D02*
X117559D01*
X84882Y-146386D02*
Y-113709D01*
X117559Y-146386D02*
Y-113709D01*
X101221Y-132016D02*
Y-128079D01*
X99252Y-130047D02*
X103189D01*
X24260Y-26900D02*
X31740D01*
X24260Y-7000D02*
X31740D01*
X24260Y-26900D02*
Y-7000D01*
X31740Y-26900D02*
Y-7000D01*
X28000Y-18969D02*
Y-15032D01*
X26032Y-17000D02*
X29969D01*
D80*
X44378Y-99000D02*
G03*
X44378Y-99000I-1378J0D01*
G01*
X43000Y-100969D02*
Y-97031D01*
X41032Y-99000D02*
X44969D01*
M02*
