G04*
G04 #@! TF.GenerationSoftware,Altium Limited,Altium Designer,18.0.11 (651)*
G04*
G04 Layer_Color=128*
%FSLAX25Y25*%
%MOIN*%
G70*
G01*
G75*
%ADD19R,0.03799X0.03150*%
%ADD20R,0.05000X0.03500*%
%ADD21R,0.03150X0.03799*%
%ADD22R,0.03000X0.03000*%
%ADD24R,0.03000X0.03000*%
%ADD30R,0.06693X0.07874*%
%ADD67R,0.03500X0.05000*%
%ADD68R,0.07874X0.05906*%
%ADD69R,0.07874X0.06693*%
%ADD70R,0.03500X0.03500*%
%ADD71R,0.08661X0.09449*%
D19*
X86000Y-108299D02*
D03*
Y-102000D02*
D03*
X93000Y-108299D02*
D03*
Y-102000D02*
D03*
X100000Y-108299D02*
D03*
Y-102000D02*
D03*
X107000Y-108299D02*
D03*
Y-102000D02*
D03*
D20*
X67500Y-83000D02*
D03*
X74500D02*
D03*
X67500Y-72300D02*
D03*
X74500D02*
D03*
D21*
X84500Y-72000D02*
D03*
X90799D02*
D03*
X62799Y-162500D02*
D03*
X56500D02*
D03*
X84500Y-82500D02*
D03*
X90799D02*
D03*
X74500Y-150000D02*
D03*
X68201D02*
D03*
X74500Y-142500D02*
D03*
X68201D02*
D03*
X74500Y-135000D02*
D03*
X68201D02*
D03*
X74500Y-127500D02*
D03*
X68201D02*
D03*
X74500Y-112500D02*
D03*
X68201D02*
D03*
X74500Y-120000D02*
D03*
X68201D02*
D03*
D22*
X43000Y-162500D02*
D03*
X48500Y-162400D02*
D03*
X106000Y-152100D02*
D03*
X111500Y-152000D02*
D03*
D24*
X55500Y-135000D02*
D03*
X55400Y-129500D02*
D03*
X23135Y-135021D02*
D03*
X23035Y-129521D02*
D03*
X25000Y-53500D02*
D03*
X25100Y-59000D02*
D03*
X138000Y-142500D02*
D03*
X137900Y-137000D02*
D03*
X142900Y-112500D02*
D03*
X143000Y-118000D02*
D03*
X132900Y-112500D02*
D03*
X133000Y-118000D02*
D03*
X126000Y-112500D02*
D03*
X126100Y-118000D02*
D03*
X29900Y-14000D02*
D03*
X30000Y-19500D02*
D03*
D30*
X16500Y-67315D02*
D03*
Y-56500D02*
D03*
X126000Y-131685D02*
D03*
Y-142500D02*
D03*
D67*
X16000Y-19500D02*
D03*
Y-12500D02*
D03*
D68*
X60000Y-149000D02*
D03*
X28769Y-148921D02*
D03*
D69*
X108000Y-161500D02*
D03*
X97185D02*
D03*
D70*
X136000Y-126000D02*
D03*
X143000D02*
D03*
D71*
X32610Y-132500D02*
D03*
X46390D02*
D03*
M02*
