M48
;Layer_Color=9474304
;FILE_FORMAT=2:5
INCH,LZ
;TYPE=PLATED
T1F00S00C0.00787
T2F00S00C0.00984
T3F00S00C0.01181
T4F00S00C0.01299
T5F00S00C0.03150
T6F00S00C0.03543
T7F00S00C0.04724
T8F00S00C0.12598
%
T01
X00265Y-0071
T02
X00065Y-0066
X0007Y-00215
X00275Y-00245
X0025Y-00535
X0016Y-0057
X0033Y-00715
X00355Y-0075
X003Y-0077
X00275Y-00805
X00235Y-00875
X00365Y-00905
X0042Y-00895
X0045Y-0091
X0048Y-0089
X00485Y-0099
X0043Y-01005
X00395Y-0101
X00345Y-01
Y-0104
X0035Y-0096
X0041
X0044Y-01085
X0052Y-01065
X00565Y-01185
X00745Y-012
Y-01275
X0068201
Y-0135
X0074
X00815
X00805Y-0139
X0075Y-0143
X00745Y-01505
X00835Y-0151
Y-0147
X0087Y-01605
X01055Y-016
X01185Y-0145
X01265Y-01445
X0119Y-0135
X012Y-01295
Y-01115
X0126Y-01125
X0115Y-01085
X0107Y-0107
X00995
X01Y-0102
X00995Y-0093
X00985Y-0112
X00925Y-01085
X0086
X00745Y-01125
X007Y-01035
Y-01
Y-00965
X0075
X00675Y-0083
Y-0072
X00615Y-00735
X0058
X0054
X00455Y-0074
X0042Y-0073
X0091Y-00725
Y-0081
X0089Y-0061
X00795Y-006
X01015Y-0067
X00425Y-0128
X0037Y-0124
X00235Y-01105
X0011Y-01055
X0014Y-01005
X0044Y-01445
Y-01535
X0043Y-01625
X0057Y-0162
X0063Y-01625
X00625Y-0154
X00685Y-01555
X00299Y-0014
X00165Y-0006
T03
X0083563Y-0129063
T04
X0094134Y-0137134
Y-0132409
Y-0127685
Y-0122961
X0098858
Y-0127685
Y-0132409
Y-0137134
X0103583
Y-0132409
Y-0127685
Y-0122961
X0108307
Y-0127685
Y-0132409
Y-0137134
T05
X0008Y-0071905
Y-0060094
T06
X0008Y-01205
Y-01105
Y-01005
Y-00905
Y-00395
X0018
X0028
X00335Y-00625
X00435
X00535
X00635
X0118Y-00655
X0128
X0138
Y-00755
X0128
X0118
X01295Y-0091
Y-0101
X01395
Y-0091
X01285Y-0164
Y-0174
T07
X0040409Y-00475
X0066
X008
Y-00255
X0105591
X0117409Y-0025
X0118Y-00475
X0105591
X0143591
X0143Y-0025
T08
X0078Y-01705
M30
