G04*
G04 #@! TF.GenerationSoftware,Altium Limited,Altium Designer,18.0.11 (651)*
G04*
G04 Layer_Color=16711935*
%FSLAX25Y25*%
%MOIN*%
G70*
G01*
G75*
%ADD35R,0.04599X0.03950*%
%ADD36R,0.05800X0.04300*%
%ADD37R,0.03950X0.04599*%
%ADD38R,0.03800X0.03800*%
%ADD40R,0.03800X0.03800*%
%ADD46R,0.07493X0.08674*%
%ADD49C,0.06706*%
%ADD50R,0.06706X0.06706*%
%ADD51C,0.03950*%
%ADD52C,0.10642*%
%ADD53R,0.06706X0.06706*%
%ADD54C,0.02769*%
%ADD55C,0.02375*%
%ADD56C,0.16548*%
%ADD72R,0.04300X0.05800*%
%ADD73R,0.08674X0.06706*%
%ADD74R,0.08674X0.07493*%
%ADD75R,0.04300X0.04300*%
%ADD76R,0.09461X0.10249*%
%ADD77C,0.03398*%
D35*
X86000Y-108299D02*
D03*
Y-102000D02*
D03*
X93000Y-108299D02*
D03*
Y-102000D02*
D03*
X100000Y-108299D02*
D03*
Y-102000D02*
D03*
X107000Y-108299D02*
D03*
Y-102000D02*
D03*
D36*
X67500Y-83000D02*
D03*
X74500D02*
D03*
X67500Y-72300D02*
D03*
X74500D02*
D03*
D37*
X84500Y-72000D02*
D03*
X90799D02*
D03*
X62799Y-162500D02*
D03*
X56500D02*
D03*
X84500Y-82500D02*
D03*
X90799D02*
D03*
X74500Y-150000D02*
D03*
X68201D02*
D03*
X74500Y-142500D02*
D03*
X68201D02*
D03*
X74500Y-135000D02*
D03*
X68201D02*
D03*
X74500Y-127500D02*
D03*
X68201D02*
D03*
X74500Y-112500D02*
D03*
X68201D02*
D03*
X74500Y-120000D02*
D03*
X68201D02*
D03*
D38*
X43000Y-162500D02*
D03*
X48500Y-162400D02*
D03*
X106000Y-152100D02*
D03*
X111500Y-152000D02*
D03*
D40*
X55500Y-135000D02*
D03*
X55400Y-129500D02*
D03*
X23135Y-135021D02*
D03*
X23035Y-129521D02*
D03*
X25000Y-53500D02*
D03*
X25100Y-59000D02*
D03*
X138000Y-142500D02*
D03*
X137900Y-137000D02*
D03*
X142900Y-112500D02*
D03*
X143000Y-118000D02*
D03*
X132900Y-112500D02*
D03*
X133000Y-118000D02*
D03*
X126000Y-112500D02*
D03*
X126100Y-118000D02*
D03*
X29900Y-14000D02*
D03*
X30000Y-19500D02*
D03*
D46*
X16500Y-67315D02*
D03*
Y-56500D02*
D03*
X126000Y-131685D02*
D03*
Y-142500D02*
D03*
D49*
X129500Y-101000D02*
D03*
Y-91000D02*
D03*
X139500Y-101000D02*
D03*
X63500Y-62500D02*
D03*
X53500D02*
D03*
X43500D02*
D03*
X18000Y-39500D02*
D03*
X8000D02*
D03*
X128500Y-164000D02*
D03*
X8000Y-120500D02*
D03*
Y-110500D02*
D03*
Y-100500D02*
D03*
X138000Y-75500D02*
D03*
X128000Y-65500D02*
D03*
Y-75500D02*
D03*
X118000Y-65500D02*
D03*
Y-75500D02*
D03*
D50*
X139500Y-91000D02*
D03*
X33500Y-62500D02*
D03*
X28000Y-39500D02*
D03*
X138000Y-65500D02*
D03*
D51*
X8000Y-71905D02*
D03*
Y-60094D02*
D03*
D52*
X66000Y-47500D02*
D03*
X40409D02*
D03*
X80000Y-25500D02*
D03*
X105591D02*
D03*
X80000Y-47500D02*
D03*
X105591D02*
D03*
X143591D02*
D03*
X118000D02*
D03*
X117409Y-25000D02*
D03*
X143000D02*
D03*
D53*
X128500Y-174000D02*
D03*
X8000Y-90500D02*
D03*
D54*
X16500Y-6000D02*
D03*
X7000Y-21500D02*
D03*
X29900Y-14000D02*
D03*
X91000Y-81000D02*
D03*
Y-72500D02*
D03*
X6500Y-66000D02*
D03*
X30000Y-77000D02*
D03*
X27500Y-80500D02*
D03*
X33000Y-71500D02*
D03*
X89000Y-61000D02*
D03*
X16000Y-57000D02*
D03*
X25000Y-53500D02*
D03*
X27500Y-24500D02*
D03*
X35500Y-75000D02*
D03*
X67500Y-72000D02*
D03*
Y-83000D02*
D03*
X61500Y-73500D02*
D03*
X48000Y-89000D02*
D03*
X45000Y-91000D02*
D03*
X58000Y-73500D02*
D03*
X42000Y-89500D02*
D03*
X54000Y-73500D02*
D03*
X79500Y-60000D02*
D03*
X45500Y-74000D02*
D03*
X42000Y-73000D02*
D03*
X36500Y-90500D02*
D03*
X101500Y-67000D02*
D03*
X41000Y-96000D02*
D03*
X39500Y-101000D02*
D03*
X48500Y-99000D02*
D03*
X43000Y-100500D02*
D03*
X37000Y-124000D02*
D03*
X99500Y-93000D02*
D03*
X115000Y-108500D02*
D03*
X107000Y-107000D02*
D03*
X98500Y-112000D02*
D03*
X99500Y-107000D02*
D03*
X100000Y-102000D02*
D03*
X92500Y-108500D02*
D03*
X52000Y-106500D02*
D03*
X23500Y-87500D02*
D03*
Y-110500D02*
D03*
X87000Y-160500D02*
D03*
X68500Y-155500D02*
D03*
X83500Y-151000D02*
D03*
X75000Y-96500D02*
D03*
X83500Y-147000D02*
D03*
X63000Y-162500D02*
D03*
X44000Y-108500D02*
D03*
X68201Y-135000D02*
D03*
Y-127500D02*
D03*
X57000Y-162000D02*
D03*
X62500Y-154000D02*
D03*
X43000Y-162500D02*
D03*
X44000Y-153500D02*
D03*
Y-144500D02*
D03*
X42500Y-128000D02*
D03*
X126000Y-112500D02*
D03*
X120000Y-111500D02*
D03*
Y-129500D02*
D03*
X119000Y-135000D02*
D03*
X126500Y-144500D02*
D03*
X118500Y-145000D02*
D03*
X105500Y-160000D02*
D03*
X35000Y-96000D02*
D03*
X80500Y-139000D02*
D03*
X70000Y-96500D02*
D03*
X81500Y-135000D02*
D03*
X74000D02*
D03*
X56500Y-118500D02*
D03*
X70000Y-100000D02*
D03*
Y-103500D02*
D03*
X74500Y-150500D02*
D03*
X75000Y-143000D02*
D03*
X74500Y-127500D02*
D03*
Y-120000D02*
D03*
Y-112500D02*
D03*
X86000Y-108500D02*
D03*
X34500Y-104000D02*
D03*
X11000Y-105500D02*
D03*
X34500Y-100000D02*
D03*
X14000Y-100500D02*
D03*
D55*
X26500Y-71000D02*
D03*
X83563Y-129063D02*
D03*
D56*
X78000Y-170500D02*
D03*
D72*
X16000Y-19500D02*
D03*
Y-12500D02*
D03*
D73*
X60000Y-149000D02*
D03*
X28769Y-148921D02*
D03*
D74*
X108000Y-161500D02*
D03*
X97185D02*
D03*
D75*
X136000Y-126000D02*
D03*
X143000D02*
D03*
D76*
X32610Y-132500D02*
D03*
X46390D02*
D03*
D77*
X94134Y-137134D02*
D03*
Y-132409D02*
D03*
Y-127685D02*
D03*
Y-122961D02*
D03*
X98858Y-137134D02*
D03*
Y-132409D02*
D03*
Y-127685D02*
D03*
Y-122961D02*
D03*
X103583Y-137134D02*
D03*
Y-132409D02*
D03*
Y-127685D02*
D03*
Y-122961D02*
D03*
X108307Y-137134D02*
D03*
Y-132409D02*
D03*
Y-127685D02*
D03*
Y-122961D02*
D03*
M02*
